<?xml version="1.0" standalone="no"?>
<!DOCTYPE svg PUBLIC "-//W3C//DTD SVG 20010904//EN"
 "http://www.w3.org/TR/2001/REC-SVG-20010904/DTD/svg10.dtd">
<svg version="1.0" xmlns="http://www.w3.org/2000/svg"
 width="256.000000pt" height="256.000000pt" viewBox="0 0 256.000000 256.000000"
 preserveAspectRatio="xMidYMid meet">

<g transform="translate(0.000000,256.000000) scale(0.100000,-0.100000)"
fill="#000000" stroke="none">
<path d="M1104 1910 c-229 -60 -410 -241 -469 -470 -25 -96 -17 -271 17 -367
79 -223 299 -402 529 -430 42 -5 47 -3 52 18 11 41 8 48 -25 52 -18 2 14 4 72
4 58 0 88 -2 68 -4 -36 -4 -38 -6 -38 -39 0 -32 2 -34 33 -34 101 1 246 59
354 144 178 139 274 368 245 585 -6 46 -14 86 -16 89 -3 2 -21 1 -41 -2 -29
-6 -35 -11 -30 -24 14 -33 17 -183 5 -245 -31 -164 -166 -336 -320 -410 -109
-52 -120 -54 -120 -23 0 21 5 26 25 26 15 0 25 6 25 14 0 8 21 26 48 41 110
64 205 169 239 266 14 38 22 49 43 51 31 4 41 43 13 52 -17 5 -19 16 -17 92 2
68 6 88 20 98 21 16 12 46 -13 46 -13 0 -28 22 -51 73 -41 91 -104 167 -139
167 -24 0 -23 -2 21 -50 150 -167 166 -411 41 -595 -23 -33 -64 -78 -92 -100
-34 -26 -52 -48 -52 -62 -1 -27 -4 -28 -36 -7 -32 21 -31 30 5 49 54 28 131
116 166 189 31 66 61 199 52 228 -3 7 -10 -26 -16 -73 -16 -115 -55 -191 -135
-266 -62 -58 -139 -103 -174 -103 -13 0 -8 8 17 27 19 15 53 45 75 68 22 23
57 48 78 54 44 15 59 35 86 113 28 82 35 156 21 237 -9 53 -17 75 -33 86 -30
21 -51 20 -42 -2 14 -34 18 -143 6 -143 -6 0 -11 16 -11 36 0 19 -5 55 -11 80
-11 42 -10 46 15 67 14 12 26 26 26 30 0 11 -91 107 -113 119 -16 8 -17 7 -8
-11 6 -11 16 -23 21 -26 19 -12 61 -105 48 -105 -7 1 -24 23 -38 51 -31 65
-134 162 -161 154 -13 -4 -19 -2 -19 9 0 8 -6 13 -12 11 -16 -6 -42 14 -51 39
-7 17 -3 18 40 11 74 -11 138 -38 135 -58 -2 -10 9 -22 27 -32 92 -47 189
-188 211 -306 l9 -54 -4 51 c-5 70 -54 173 -110 233 -41 44 -45 52 -34 69 10
16 10 23 0 36 -7 8 -18 13 -25 10 -7 -3 -28 4 -47 15 -65 37 -145 54 -245 49
-69 -3 -97 -8 -106 -19 -7 -9 -34 -24 -61 -33 -60 -22 -153 -91 -195 -143 -41
-52 -76 -123 -97 -197 -26 -88 -17 -239 19 -327 48 -118 149 -223 275 -284 49
-24 57 -32 53 -51 -4 -22 -5 -22 -44 -8 -82 29 -165 81 -229 145 -275 273
-199 728 151 903 48 24 116 49 153 56 67 12 67 12 67 46 0 31 -3 34 -27 33
-16 0 -60 -9 -99 -19z m140 -184 c-3 -8 -12 -12 -20 -9 -17 6 -9 23 11 23 8 0
12 -6 9 -14z m50 -11 c-7 -18 -34 -28 -34 -12 0 17 21 38 31 31 5 -2 6 -11 3
-19z m-58 -17 c3 -5 0 -15 -6 -23 -10 -12 -15 -12 -36 2 -18 11 -22 19 -14 28
11 14 46 9 56 -7z m-168 -16 c2 -12 -1 -22 -7 -22 -6 0 -11 5 -11 10 0 6 -4
10 -10 10 -5 0 -7 -6 -4 -13 2 -7 -7 -38 -21 -68 -13 -30 -25 -65 -25 -79 -1
-46 -13 -53 -78 -47 -61 5 -61 5 -72 -26 -5 -17 -13 -55 -17 -84 -3 -30 -10
-56 -16 -60 -15 -9 3 95 29 165 13 34 37 82 54 106 36 53 98 106 115 100 7 -3
15 5 18 16 7 28 41 23 45 -8z m372 -23 c0 -5 -14 -9 -30 -9 -33 0 -52 26 -30
40 14 9 60 -15 60 -31z m-82 -1 c2 -10 -7 -18 -25 -23 -15 -3 -36 -14 -46 -22
-25 -23 -32 -9 -10 21 11 16 24 23 36 20 11 -4 17 0 17 11 0 20 24 14 28 -7z
m-165 -31 c3 -8 -1 -14 -9 -14 -8 0 -14 6 -14 14 0 7 4 13 9 13 5 0 11 -6 14
-13z m314 -47 c40 -65 41 -80 7 -80 -14 0 -23 4 -19 10 4 6 -7 10 -27 10 -31
0 -35 4 -51 50 -21 59 -16 72 26 68 27 -2 37 -12 64 -58z m-112 0 c19 -58 15
-70 -26 -70 -16 0 -45 -6 -63 -14 l-34 -14 -4 41 c-6 48 9 72 57 93 46 20 52
18 70 -36z m-337 -46 c-3 -53 -5 -59 -27 -62 -22 -4 -23 -2 -16 49 14 104 48
114 43 13z m192 59 c0 -5 -11 -26 -23 -48 l-23 -40 21 -17 c20 -18 19 -18 -15
-17 -19 0 -48 -3 -64 -7 -27 -7 -29 -5 -22 19 6 24 3 27 -16 24 -18 -1 -22 2
-20 18 5 25 0 23 45 17 35 -4 38 -7 33 -28 -4 -14 -2 -24 4 -24 5 0 10 11 10
25 0 14 7 28 15 31 8 4 15 12 15 18 0 14 20 36 32 36 4 0 8 -3 8 -7z m-3 -90
c-4 -17 -4 -17 -12 0 -4 9 -4 25 0 35 8 16 8 16 12 0 3 -10 3 -26 0 -35z m319
-95 c7 -40 9 -76 6 -80 -4 -4 -31 -10 -59 -14 l-53 -7 0 35 c0 20 -3 56 -6 80
l-6 45 48 10 c27 5 51 8 53 6 2 -1 10 -35 17 -75z m-132 30 c3 -13 6 -47 6
-76 0 -61 -17 -75 -49 -43 -12 12 -26 21 -32 21 -6 0 -8 9 -4 20 4 11 2 20 -4
20 -6 0 -11 -7 -11 -16 0 -11 -8 -14 -32 -12 -44 4 -49 28 -6 29 l33 1 -30 7
c-34 7 -48 41 -18 42 16 0 16 1 -2 9 -17 6 -14 8 15 12 19 3 56 6 81 6 41 2
47 -1 53 -20z m-463 -68 c-1 -41 -5 -78 -9 -81 -4 -3 -32 -3 -62 0 -55 6 -55
6 -58 43 -2 20 2 55 8 78 l11 41 56 -3 56 -3 -2 -75z m74 50 c5 0 19 -10 32
-22 18 -17 23 -32 23 -70 l0 -48 -54 0 c-39 0 -55 4 -60 15 -5 15 0 83 10 134
5 22 6 22 23 7 10 -9 21 -16 26 -16z m182 -3 c7 2 9 11 6 19 -3 8 -1 14 5 14
5 0 9 -14 8 -31 -1 -16 1 -32 6 -35 16 -10 8 -31 -17 -44 -22 -12 -27 -11 -49
13 -14 15 -29 27 -35 27 -19 0 -22 21 -6 46 16 25 16 25 43 6 15 -11 32 -17
39 -15z m-77 -68 c0 -4 12 -14 27 -21 15 -7 29 -21 31 -31 3 -14 -4 -17 -42
-17 l-46 0 0 45 c0 35 3 43 15 39 8 -4 15 -10 15 -15z m439 -195 c-12 -41 -26
-74 -32 -74 -5 0 -6 8 -2 18 16 42 35 129 35 162 0 52 14 60 18 10 2 -23 -7
-75 -19 -116z m-15 104 c-10 -70 -31 -148 -47 -172 -11 -16 -29 -25 -59 -29
-23 -3 -44 -4 -46 -3 -4 5 37 156 49 178 6 10 7 27 4 38 -6 20 9 26 73 29 l32
1 -6 -42z m-754 -16 c1 -15 9 -52 20 -82 11 -30 19 -62 20 -71 0 -25 132 -150
195 -184 47 -27 51 -32 36 -42 -22 -14 -76 18 -144 84 -78 76 -128 175 -142
282 -5 38 -4 52 4 47 6 -4 11 -19 11 -34z m130 18 c13 0 19 -11 25 -45 3 -25
15 -71 26 -102 10 -31 18 -58 16 -59 -6 -7 -111 26 -124 38 -17 18 -53 121
-53 154 0 26 1 27 46 20 26 -3 55 -6 64 -6z m154 -22 c2 -13 9 -52 15 -88 6
-36 14 -75 17 -87 6 -20 3 -23 -22 -23 -61 0 -71 9 -93 76 -11 35 -24 82 -27
104 l-7 40 57 0 c50 0 56 -2 60 -22z m109 -17 c15 -22 35 -42 47 -46 18 -6 20
-15 20 -76 l0 -70 -52 6 c-29 4 -55 8 -59 11 -8 5 -49 171 -49 198 0 12 9 16
34 16 28 0 38 -6 59 -39z m192 -144 c-12 -29 -21 -37 -40 -37 -14 0 -25 2 -25
4 0 2 16 21 35 42 19 21 36 45 36 53 1 10 3 8 6 -4 2 -11 -3 -37 -12 -58z
m-392 -72 c37 -7 155 -115 126 -115 -22 0 -103 44 -150 82 -39 31 -52 55 -25
45 8 -3 30 -9 49 -12z m441 -26 c-41 -43 -119 -99 -138 -99 -13 0 -15 7 -10
43 8 62 11 67 35 67 20 0 21 -1 5 -25 -23 -35 -4 -31 22 4 20 27 39 35 96 40
17 1 16 -3 -10 -30z m-262 -43 c16 -27 27 -51 24 -54 -8 -7 -76 41 -112 79
l-29 30 44 -3 c42 -3 47 -6 73 -52z m88 -6 c0 -73 -32 -65 -74 18 l-17 32 46
0 45 0 0 -50z m-61 -83 c61 -10 104 -6 224 19 23 5 27 3 27 -15 0 -21 -3 -21
-175 -21 -171 0 -175 0 -175 21 0 16 4 19 18 14 9 -4 46 -12 81 -18z m114 -94
c-35 -2 -91 -2 -125 0 -35 2 -7 3 62 3 69 0 97 -1 63 -3z"/>
<path d="M1310 1912 c0 -11 -2 -27 -5 -34 -4 -11 13 -17 72 -26 156 -24 312
-124 400 -255 48 -71 50 -73 81 -65 18 5 32 11 32 15 0 23 -76 130 -135 188
-111 110 -246 177 -384 191 -57 6 -61 5 -61 -14z"/>
<path d="M1360 1760 c36 -10 66 -17 68 -15 5 5 -98 35 -117 34 -9 0 13 -9 49
-19z"/>
</g>
</svg>
