<?xml version="1.0" standalone="no"?>
<!DOCTYPE svg PUBLIC "-//W3C//DTD SVG 20010904//EN"
 "http://www.w3.org/TR/2001/REC-SVG-20010904/DTD/svg10.dtd">
<svg version="1.0" xmlns="http://www.w3.org/2000/svg"
 width="1025.000000pt" height="1025.000000pt" viewBox="0 0 1025.000000 1025.000000"
 preserveAspectRatio="xMidYMid meet">

<g transform="translate(0.000000,1025.000000) scale(0.100000,-0.100000)"
fill="#000000" stroke="none">
<path d="M4855 7732 c-109 -7 -330 -47 -459 -82 -432 -119 -801 -329 -1139
-650 -258 -245 -494 -594 -621 -922 -191 -490 -225 -1028 -97 -1558 43 -180
92 -313 181 -495 128 -263 284 -480 489 -685 407 -404 893 -661 1436 -759 134
-24 285 -37 285 -25 0 5 9 61 20 124 29 170 35 156 -67 164 -101 7 -203 25
-203 36 0 11 250 20 581 20 283 0 342 -5 308 -25 -18 -12 -200 -35 -276 -35
l-73 0 0 -29 c0 -16 6 -64 14 -107 8 -44 17 -96 21 -116 l6 -38 62 0 c148 1
439 60 669 136 261 87 594 272 828 461 462 372 788 891 914 1453 52 235 61
318 60 580 0 206 -4 266 -22 374 -32 184 -64 316 -76 316 -6 0 -73 -17 -149
-37 -137 -37 -138 -37 -132 -63 77 -299 95 -631 50 -925 -60 -392 -244 -797
-503 -1105 -256 -305 -618 -573 -963 -711 -73 -29 -280 -99 -294 -99 -8 0 -10
20 -7 58 2 32 0 74 -6 94 l-10 37 61 5 c34 4 85 7 112 9 l50 2 3 57 3 57 107
58 c414 222 717 516 935 908 57 103 126 264 148 348 14 51 16 52 72 36 51 -14
91 -4 127 32 82 82 27 199 -93 199 -41 0 -48 3 -43 18 3 9 13 71 22 137 12 93
15 163 10 310 -3 105 -7 201 -8 214 -3 20 3 25 44 36 54 13 74 27 94 66 19 38
18 78 -6 116 -27 44 -53 55 -122 51 l-61 -3 -32 95 c-44 133 -92 238 -165 365
-89 157 -160 252 -284 382 l-109 114 -71 -7 c-54 -5 -80 -3 -110 10 -21 9 -41
16 -44 16 -3 0 57 -64 135 -142 223 -228 359 -431 463 -694 136 -340 159 -761
63 -1154 -90 -375 -322 -749 -619 -998 -81 -68 -225 -172 -254 -184 -4 -2 -2
-36 4 -76 12 -89 5 -100 -49 -77 -57 23 -207 125 -202 138 2 6 12 15 23 21
173 95 397 275 526 421 203 230 354 536 425 863 21 98 26 152 30 333 5 190 3
233 -16 352 -28 174 -60 290 -117 430 -110 270 -263 489 -468 669 -45 39 -82
74 -84 77 -1 3 12 12 28 20 65 28 95 162 48 216 -28 31 -88 37 -116 12 -10
-10 -22 -17 -25 -17 -4 0 -58 29 -120 65 -151 86 -284 141 -442 181 -270 67
-573 74 -870 18 -118 -22 -125 -26 -125 -74 0 -38 -2 -40 -31 -40 -50 0 -175
-47 -334 -125 -393 -194 -740 -546 -926 -940 -140 -299 -199 -565 -199 -902
-1 -294 39 -518 135 -760 82 -208 168 -353 316 -538 201 -251 448 -455 690
-569 52 -25 105 -57 118 -70 26 -28 119 -62 194 -72 26 -4 47 -9 47 -12 0 -2
-12 -16 -26 -29 -25 -23 -26 -29 -21 -89 5 -53 4 -64 -9 -64 -41 0 -306 99
-439 164 -378 185 -693 461 -928 813 -321 480 -439 1046 -341 1624 67 392 268
808 540 1114 210 238 429 404 719 545 250 122 481 193 770 235 60 9 110 17
111 18 7 6 -33 268 -41 274 -5 5 -28 7 -50 5z m581 -571 c55 -11 136 -32 180
-46 100 -33 254 -105 254 -119 0 -6 -14 -28 -31 -49 -17 -21 -30 -40 -28 -41
2 -2 40 -22 85 -44 178 -89 430 -309 575 -502 96 -127 213 -354 263 -508 160
-496 111 -1052 -131 -1477 -111 -194 -315 -421 -507 -563 -117 -87 -277 -174
-392 -215 -67 -24 -157 -37 -169 -25 -3 3 51 50 122 104 130 101 348 310 393
377 22 33 36 41 135 73 178 59 251 97 285 151 16 25 32 59 36 77 3 17 10 36
14 41 19 23 112 272 135 358 53 201 60 259 59 497 0 202 -3 239 -27 361 -15
75 -37 169 -49 209 l-23 72 -85 35 c-97 39 -158 58 -166 50 -3 -3 10 -67 29
-144 32 -126 62 -322 69 -448 2 -49 2 -49 -32 -56 -19 -4 -37 -6 -39 -3 -2 2
-8 54 -12 116 -13 164 -50 367 -95 520 -4 13 3 21 23 29 42 16 63 39 57 63 -4
18 4 24 61 45 37 13 69 30 72 39 8 19 -22 73 -93 169 -105 142 -242 271 -370
348 -110 66 -112 41 -7 -81 127 -148 260 -368 279 -463 6 -26 3 -30 -26 -36
-18 -4 -35 -3 -39 1 -4 5 -25 50 -46 99 -122 280 -302 504 -525 651 -86 56
-104 73 -102 91 3 24 -6 29 -90 38 -32 4 -59 13 -62 20 -7 19 -67 30 -76 14
-16 -24 2 -37 68 -49 84 -14 102 -19 102 -30 0 -17 -69 -23 -86 -9 -9 8 -37
21 -62 30 -37 12 -48 21 -54 46 -11 41 -22 48 -98 66 -46 10 -64 18 -61 28 13
43 12 76 -3 88 -9 8 -16 18 -16 24 0 15 188 2 306 -22z m-422 -69 c6 -10 -63
-36 -72 -27 -9 9 27 35 49 35 10 0 20 -4 23 -8z m-384 -52 c-27 -21 -55 -27
-45 -9 7 11 42 27 60 28 6 0 -1 -8 -15 -19z m165 -20 c3 -5 -3 -10 -15 -10
-12 0 -18 5 -15 10 3 6 10 10 15 10 5 0 12 -4 15 -10z m371 -66 c13 -9 26 -24
29 -35 7 -20 -10 -59 -25 -59 -6 0 -10 -7 -10 -15 0 -8 -15 -22 -32 -31 -18
-8 -42 -27 -54 -40 l-20 -25 -11 56 c-9 50 -8 55 8 55 27 0 33 19 13 41 -19
21 -9 24 30 9 35 -13 44 5 17 34 -12 12 -21 26 -21 30 0 11 47 -2 76 -20z
m-165 -6 c12 -19 0 -29 -27 -22 -29 7 -43 -18 -24 -41 11 -13 10 -18 -5 -29
-13 -9 -15 -19 -10 -37 21 -63 16 -82 -32 -127 l-46 -43 -22 27 c-12 16 -46
39 -76 54 -30 14 -55 33 -57 42 -2 9 13 35 33 57 41 45 54 46 127 10 21 -11
40 -19 43 -19 3 0 5 21 5 47 0 37 -3 44 -12 35 -13 -13 -58 -17 -57 -4 2 26
20 47 50 59 39 14 99 10 110 -9z m-785 -103 c-4 -10 3 -19 19 -25 27 -10 35
-31 38 -108 2 -49 0 -54 -30 -73 l-31 -20 5 38 c6 53 -11 72 -74 80 -61 7 -66
18 -30 70 13 20 28 32 38 30 9 -3 27 2 40 9 31 17 32 17 25 -1z m1484 -132
c58 -50 86 -80 77 -84 -15 -9 -226 -43 -231 -38 -11 14 -87 161 -85 163 2 2
36 10 74 18 39 9 71 16 72 17 2 1 43 -34 93 -76z m-1686 -4 c13 -19 19 -20 44
-11 45 15 112 -4 112 -32 0 -11 3 -30 6 -41 3 -14 -5 -34 -26 -60 -37 -47 -87
-150 -140 -290 -28 -76 -39 -122 -44 -190 -10 -121 -35 -199 -67 -204 -13 -2
-109 2 -213 9 -169 12 -189 15 -193 31 -6 23 -39 25 -47 4 -3 -8 -15 -15 -26
-15 -25 0 -29 -9 -73 -180 -48 -181 -56 -228 -71 -383 -12 -130 -12 -132 -36
-129 -13 1 -26 4 -28 6 -7 8 20 241 40 346 58 308 232 664 433 886 64 71 291
274 307 274 4 0 14 -10 22 -21z m1420 -48 c20 -38 36 -73 36 -78 0 -5 -40 -16
-89 -26 -93 -17 -192 -50 -214 -70 -35 -34 -102 -87 -109 -87 -4 0 -8 14 -8
31 0 21 9 38 30 56 17 13 30 29 30 35 0 13 37 61 75 99 l30 30 -29 -11 c-36
-13 -87 -49 -104 -72 -7 -10 -20 -18 -29 -18 -30 0 28 50 99 86 73 37 109 45
89 20 -9 -11 -10 -20 -1 -35 13 -25 47 -20 93 11 33 23 35 39 5 35 -36 -3 -33
27 4 45 18 8 38 16 44 17 6 0 28 -30 48 -68z m-684 -41 c0 -5 -10 -10 -23 -10
-13 0 -32 -7 -43 -15 -21 -16 -44 -20 -44 -7 0 12 61 41 88 41 12 1 22 -3 22
-9z m1148 -97 c73 -85 156 -214 212 -328 43 -88 71 -165 59 -165 -2 0 -59 -11
-127 -25 -153 -31 -170 -31 -107 2 59 30 85 51 85 69 0 10 -30 12 -134 9 -119
-3 -135 -2 -141 13 -3 9 -22 65 -41 123 -18 58 -54 150 -78 204 -25 55 -44
101 -42 102 2 2 41 10 87 18 46 8 98 19 114 24 53 16 62 12 113 -46z m-1648
34 c0 -1 -9 -20 -20 -42 -25 -49 -25 -98 0 -152 17 -38 18 -50 8 -97 -9 -40
-9 -75 0 -137 22 -157 22 -187 5 -205 -9 -8 -24 -13 -34 -11 -11 3 -19 -2 -22
-13 -6 -22 -97 -36 -127 -20 -18 9 -20 21 -20 99 0 73 4 96 24 136 20 38 23
53 14 68 -14 28 2 76 53 162 23 38 48 88 55 111 16 55 42 104 54 104 6 0 10
-1 10 -3z m525 -11 c19 -8 35 -18 35 -22 0 -18 -25 -74 -33 -74 -5 0 -6 -7 -3
-16 4 -10 1 -14 -6 -12 -7 3 -14 16 -16 30 -2 19 2 27 17 31 29 7 28 39 -1 35
-13 -2 -32 -20 -48 -48 -14 -25 -35 -47 -45 -49 -12 -2 -16 1 -12 12 3 8 11
35 17 58 7 24 14 50 16 57 5 16 37 15 79 -2z m777 -118 c46 -117 122 -347 117
-352 -2 -2 -58 -9 -124 -16 -137 -13 -247 -37 -355 -77 -66 -24 -75 -31 -72
-50 2 -16 -2 -23 -12 -23 -21 0 -23 15 -36 220 l-11 175 48 43 c105 95 159
123 287 152 126 29 117 33 158 -72z m-560 -49 c2 -25 -1 -44 -9 -51 -23 -19
-103 -200 -103 -234 0 -32 -1 -33 -35 -27 -32 5 -35 4 -35 -19 0 -29 17 -48
42 -48 10 0 23 -11 28 -24 12 -32 66 -69 90 -63 12 3 20 0 20 -7 0 -14 -173
-38 -178 -26 -11 26 -33 41 -67 46 -37 6 -38 5 -21 -8 19 -15 19 -15 0 -25
-27 -15 -118 -33 -163 -33 -30 0 -40 -4 -44 -20 -9 -36 -26 -22 -21 18 11 80
25 162 30 177 10 26 -72 20 -86 -6 -9 -17 -14 -18 -27 -8 -12 10 -19 10 -35 0
-11 -7 -24 -9 -28 -4 -12 14 5 164 21 174 20 13 50 10 79 -6 14 -8 49 -14 78
-15 29 0 61 -5 71 -12 15 -9 26 -9 47 1 15 6 31 8 35 4 6 -7 14 -109 10 -136
0 -4 -14 -1 -31 8 -16 9 -30 11 -30 7 0 -14 51 -102 58 -102 33 1 52 48 52
127 0 98 5 107 63 134 l52 24 0 48 c0 45 4 52 52 98 64 61 80 62 85 8z m6
-332 l-3 -92 -37 37 c-50 47 -51 90 -6 178 l33 63 8 -47 c4 -26 6 -89 5 -139z
m1230 -174 c21 -77 65 -366 76 -495 3 -43 1 -70 -5 -74 -13 -8 -372 -64 -411
-64 -26 0 -26 1 -33 88 -16 222 -28 335 -45 432 -10 58 -17 106 -16 108 2 1
52 11 112 22 60 11 145 29 189 39 118 27 109 31 133 -56z m-2231 15 c-3 -8 -6
-5 -6 6 -1 11 2 17 5 13 3 -3 4 -12 1 -19z m1737 -115 c23 -129 48 -388 44
-467 l-3 -70 -73 -13 c-76 -14 -102 -8 -102 23 0 23 -60 82 -95 94 -18 6 -38
17 -45 24 -6 8 -19 12 -29 9 -25 -6 -35 33 -15 61 29 41 8 113 -35 122 -14 3
-37 9 -51 14 -14 4 -70 8 -124 9 -55 0 -103 4 -107 8 -4 5 -9 33 -10 63 l-3
55 65 10 c88 15 96 21 68 51 -26 28 -42 30 -59 8 -20 -23 -75 -15 -75 11 0 19
9 21 133 28 73 5 201 16 285 26 84 10 166 19 183 20 l32 1 16 -87z m-2119 27
c50 -5 136 -10 193 -10 56 0 102 -3 102 -7 -1 -5 -7 -48 -15 -98 -9 -49 -18
-192 -22 -317 l-6 -228 -42 0 c-47 0 -281 24 -390 39 -38 6 -76 11 -83 11 -27
0 12 318 59 485 39 142 43 148 82 141 18 -3 73 -10 122 -16z m1390 -24 c0 -32
-49 -39 -93 -13 l-37 22 35 6 c62 12 95 6 95 -15z m-313 -12 c12 -25 54 -54
81 -54 7 0 24 -11 37 -25 13 -14 34 -25 47 -25 13 0 45 11 71 25 59 32 82 32
82 3 0 -13 3 -40 6 -60 l7 -38 -45 0 c-40 0 -68 -13 -68 -31 0 -3 19 -5 43 -2
62 6 70 -4 71 -83 1 -61 -1 -69 -19 -72 -11 -2 -29 -12 -40 -22 -25 -22 -99
-60 -119 -60 -18 0 -25 20 -19 53 8 40 -13 59 -62 56 -53 -4 -65 5 -65 46 0
45 -29 64 -112 73 -56 6 -63 9 -66 31 -2 13 6 37 18 53 11 15 30 50 41 76 33
78 88 106 111 56z m-613 -15 c32 -44 79 -69 128 -69 36 0 45 -5 59 -27 47 -76
62 -94 101 -119 l43 -27 0 -193 c0 -118 -4 -195 -10 -199 -12 -7 -442 13 -450
21 -3 3 -4 90 -4 192 1 174 10 269 35 400 10 50 12 52 43 52 24 0 38 -7 55
-31z m1302 -240 c5 -20 0 -37 -18 -65 l-25 -39 -109 0 c-121 0 -113 -5 -125
78 l-6 48 50 -7 c30 -4 57 -2 68 5 11 6 50 10 88 8 66 -2 70 -3 77 -28z m-843
-48 c43 -22 73 -53 96 -98 29 -58 82 -79 118 -47 16 16 18 15 24 -2 4 -11 22
-33 41 -50 40 -38 43 -76 11 -124 l-23 -33 -150 2 c-82 1 -154 6 -159 11 -11
11 -22 320 -13 344 8 20 10 20 55 -3z m1918 -308 c-16 -238 -69 -488 -148
-705 -33 -89 -48 -119 -66 -127 -48 -22 -53 -15 -30 42 95 234 150 489 174
799 5 74 7 77 32 81 15 2 31 5 36 6 4 0 5 -43 2 -96z m-152 59 c9 -15 -14
-260 -35 -370 -40 -212 -116 -446 -174 -533 -24 -36 -24 -37 -167 -63 -79 -15
-165 -31 -191 -36 -80 -16 -78 -18 -41 76 40 103 70 209 79 283 3 29 15 66 27
81 14 19 23 52 28 97 5 51 16 88 47 148 73 145 76 189 14 215 -46 19 -39 38
17 46 26 4 119 19 207 34 189 33 182 32 189 22z m-3048 -100 c6 -4 14 -41 18
-82 18 -189 75 -402 148 -558 35 -74 38 -86 24 -94 -23 -13 -21 -20 29 -107
52 -89 66 -104 118 -121 20 -6 37 -15 37 -18 0 -21 167 -204 269 -295 332
-297 776 -467 1226 -468 187 -1 290 13 517 73 220 57 248 49 248 -71 l0 -48
-82 -6 c-46 -4 -363 -7 -706 -7 l-622 0 6 27 c10 36 10 104 2 126 -6 13 -19
17 -57 17 -42 0 -56 -5 -85 -31 l-35 -30 -81 42 c-178 92 -329 208 -490 376
-137 142 -223 264 -315 448 -120 241 -191 492 -211 748 -6 81 -5 87 12 87 11
0 24 -4 30 -8z m207 -32 c32 -5 133 -14 225 -21 92 -6 172 -13 178 -14 6 -2
16 -47 23 -102 25 -207 80 -419 157 -600 25 -60 48 -114 51 -122 5 -11 -3 -12
-38 -6 -81 13 -399 95 -459 119 -20 8 -130 229 -165 331 -32 94 -71 272 -81
369 l-7 68 29 -6 c16 -4 55 -11 87 -16z m819 -50 l127 0 5 -32 c2 -18 9 -76
15 -128 21 -192 75 -449 133 -637 12 -40 19 -75 17 -78 -8 -7 -372 34 -380 43
-12 12 -106 245 -133 327 -43 135 -106 426 -106 494 l0 24 98 -6 c53 -4 154
-7 224 -7z m504 -20 c3 -58 6 -66 40 -90 19 -14 45 -45 58 -70 32 -59 72 -96
159 -145 l72 -41 9 -247 c4 -136 6 -253 2 -262 -4 -13 -33 -15 -179 -15 -229
0 -266 5 -279 39 -72 191 -169 658 -173 836 0 6 50 12 120 16 173 8 170 8 171
-21z m909 -467 c-15 -62 -82 -264 -109 -324 -17 -40 -5 -37 -185 -55 l-64 -7
18 30 c9 16 36 42 60 58 23 16 66 61 96 99 30 39 70 86 90 105 28 28 38 46 42
81 5 43 26 70 53 70 9 0 9 -13 -1 -57z m-1624 -527 l145 -31 58 -70 c93 -111
194 -211 286 -283 98 -78 91 -87 -37 -52 -143 39 -336 141 -493 260 -74 57
-250 225 -250 240 0 4 33 -2 73 -13 39 -11 137 -34 218 -51z m1869 34 c0 -6
-55 -66 -122 -133 -125 -125 -275 -245 -389 -312 -35 -20 -70 -46 -77 -56 -11
-16 -26 -19 -88 -19 -73 0 -74 0 -74 25 0 14 12 49 26 77 23 45 26 61 21 113
-3 44 1 78 17 130 l22 70 84 12 c47 6 86 10 89 8 2 -2 -27 -45 -64 -96 -51
-70 -64 -94 -53 -100 20 -13 34 -11 56 9 21 18 139 165 157 196 7 12 38 21
110 31 55 9 134 24 175 34 89 22 110 24 110 11z m-1435 -95 c77 -9 145 -17
151 -20 6 -2 39 -57 74 -122 34 -65 89 -156 121 -202 33 -46 58 -85 56 -87 -2
-3 -28 1 -57 7 -102 22 -403 269 -509 418 l-25 34 25 -6 c13 -3 87 -13 164
-22z m627 -145 c-2 -69 -8 -152 -13 -185 -18 -110 -14 -105 -64 -105 -41 0
-47 3 -90 57 -53 65 -141 211 -178 295 l-26 57 157 4 c86 2 171 3 187 2 l30 0
-3 -125z m463 -770 c0 -13 -63 -15 -498 -18 -397 -2 -498 0 -495 10 6 17 191
24 638 23 309 0 355 -2 355 -15z"/>
<path d="M5200 7107 c0 -21 7 -24 110 -40 132 -21 261 -57 351 -98 71 -33 102
-35 107 -6 4 20 -61 52 -202 98 -88 29 -284 69 -338 69 -23 0 -28 -4 -28 -23z"/>
<path d="M6467 6049 c-17 -10 -16 -12 8 -35 32 -29 41 -30 55 -3 23 41 -17 65
-63 38z"/>
<path d="M3606 6265 c-9 -14 -13 -25 -9 -25 10 0 36 40 30 46 -2 3 -12 -7 -21
-21z"/>
<path d="M3452 6010 c-12 -49 -6 -52 14 -5 16 40 17 45 5 45 -5 0 -13 -18 -19
-40z"/>
<path d="M4079 6106 c-9 -19 -9 -30 -2 -37 8 -8 13 -2 18 21 4 17 4 34 1 37
-3 3 -11 -6 -17 -21z"/>
<path d="M5290 5740 c-12 -8 -11 -10 7 -10 12 0 25 5 28 10 8 13 -15 13 -35 0z"/>
<path d="M5247 7723 c-10 -34 -31 -263 -25 -268 3 -4 50 -11 104 -16 570 -53
1081 -286 1483 -674 182 -176 329 -373 432 -577 l48 -96 143 36 c79 20 145 37
146 38 2 1 -15 42 -38 91 -341 728 -1110 1305 -1920 1442 -63 11 -158 22 -210
26 -52 3 -109 8 -127 11 -24 4 -33 1 -36 -13z"/>
<path d="M7194 2126 c-3 -8 -4 -29 -2 -48 2 -26 8 -34 26 -36 46 -7 87 76 46
92 -28 11 -64 6 -70 -8z"/>
<path d="M7707 2116 c-14 -13 -29 -36 -33 -50 -3 -14 -10 -26 -14 -26 -4 0
-11 -20 -14 -45 -4 -25 -11 -45 -17 -45 -5 0 -9 -13 -9 -30 0 -29 -2 -30 -45
-30 -25 0 -45 -4 -45 -10 0 -5 -9 -10 -19 -10 -11 0 -26 -7 -35 -15 -8 -8 -18
-15 -21 -15 -12 0 -85 -77 -85 -89 0 -6 -4 -11 -10 -11 -5 0 -12 -11 -16 -25
-3 -14 -10 -25 -14 -25 -5 0 -11 -13 -15 -30 -4 -16 -11 -30 -15 -30 -5 0 -12
-16 -16 -35 -3 -19 -10 -35 -15 -35 -5 0 -9 -29 -9 -65 0 -59 3 -69 28 -91 23
-23 33 -25 72 -20 25 4 47 11 48 16 2 6 10 10 17 10 7 0 34 21 60 46 l46 46
-7 -43 c-4 -24 -12 -47 -18 -51 -8 -6 -6 -11 4 -18 18 -13 93 -6 98 9 2 6 10
11 18 11 8 0 17 7 20 15 3 8 15 17 26 21 29 9 58 41 58 64 0 28 -4 26 -49 -20
-21 -22 -47 -40 -56 -40 -16 0 -17 7 -10 72 3 40 10 75 15 78 4 3 11 31 15 63
4 31 11 57 15 57 4 0 11 32 14 70 4 39 11 70 15 70 5 0 12 29 16 65 3 36 10
65 15 65 4 0 11 25 15 55 3 30 11 55 16 55 5 0 9 6 9 14 0 8 8 17 18 19 9 3 3
5 -14 6 -20 1 -40 -7 -57 -23z m-122 -358 c-3 -40 -10 -75 -15 -78 -4 -3 -11
-29 -15 -57 -4 -29 -11 -53 -16 -53 -5 0 -9 -5 -9 -11 0 -6 -17 -29 -39 -50
-21 -22 -44 -39 -50 -39 -6 0 -11 -4 -11 -10 0 -17 -39 -11 -60 10 -15 15 -20
33 -20 75 0 30 4 55 9 55 4 0 11 19 14 41 3 23 10 45 15 48 6 3 14 19 17 34 4
15 11 27 15 27 4 0 11 11 14 24 3 14 16 26 31 30 14 4 25 11 25 16 0 6 23 10
51 10 l52 0 -8 -72z"/>
<path d="M7883 2133 c15 -2 37 -2 50 0 12 2 0 4 -28 4 -27 0 -38 -2 -22 -4z"/>
<path d="M1843 2073 c-13 -2 -23 -8 -23 -13 0 -4 -12 -11 -26 -14 -28 -7 -94
-66 -94 -85 0 -6 -4 -11 -10 -11 -5 0 -12 -11 -16 -25 -3 -14 -10 -25 -15 -25
-4 0 -11 -16 -15 -35 -3 -19 -10 -35 -14 -35 -4 0 -11 -20 -14 -45 -4 -25 -11
-45 -16 -45 -4 0 -11 -27 -15 -60 -4 -33 -11 -60 -15 -60 -4 0 -11 -25 -15
-55 -3 -30 -10 -55 -15 -55 -5 0 -11 -13 -15 -29 -5 -22 -14 -31 -36 -36 -16
-4 -29 -11 -29 -16 0 -5 -11 -9 -25 -9 -14 0 -25 -6 -25 -13 0 -11 52 -15 258
-21 142 -3 273 -3 292 0 35 8 80 47 80 70 0 8 5 14 10 14 18 0 11 49 -10 70
-24 24 -27 24 -46 6 -16 -17 -19 -66 -4 -66 16 0 12 -18 -10 -40 -23 -23 -96
-28 -102 -7 -4 9 -42 12 -146 12 -78 0 -137 2 -132 3 6 2 13 21 16 43 4 21 10
39 15 39 5 0 11 23 15 50 4 28 10 50 14 50 4 0 11 25 15 55 3 30 10 55 14 55
5 0 11 23 15 50 4 28 10 50 15 50 5 0 11 18 15 40 3 22 10 40 15 40 5 0 12 11
15 25 9 36 72 95 101 95 14 0 25 -4 25 -10 0 -5 6 -10 14 -10 8 0 22 -7 30
-16 9 -8 28 -16 43 -17 37 -3 44 36 12 66 -22 21 -96 31 -146 20z"/>
<path d="M6233 2073 c-18 -2 -33 -8 -33 -12 0 -5 -18 -11 -40 -15 -22 -3 -40
-10 -40 -15 0 -5 -12 -12 -26 -15 -14 -4 -35 -17 -47 -30 -12 -12 -30 -25 -39
-29 -10 -3 -18 -12 -18 -18 0 -6 -11 -22 -24 -34 -13 -12 -27 -33 -31 -46 -4
-13 -12 -27 -18 -30 -5 -4 -12 -30 -15 -58 -2 -28 -8 -51 -13 -51 -5 0 -9 -9
-9 -20 0 -11 5 -20 10 -20 6 0 10 -18 10 -40 0 -26 5 -43 14 -46 8 -3 17 -16
20 -29 11 -45 86 -45 86 0 0 15 -7 26 -21 30 -50 16 -64 45 -64 128 0 49 4 80
12 85 6 4 15 20 18 35 4 15 11 27 15 27 5 0 12 9 15 21 9 27 37 55 63 63 11 4
23 13 26 21 3 8 12 15 21 15 8 0 15 4 15 10 0 5 17 12 38 16 20 4 40 12 44 18
5 7 47 11 116 11 107 0 108 0 136 -30 25 -27 28 -36 24 -86 -3 -35 -10 -63
-21 -73 -9 -10 -17 -24 -17 -32 0 -8 -6 -14 -14 -14 -8 0 -22 -7 -30 -16 -9
-8 -41 -18 -71 -21 -47 -5 -55 -3 -55 11 0 9 4 16 9 16 5 0 12 29 16 65 3 36
10 65 15 65 4 0 10 14 12 31 l5 31 -60 -7 c-33 -3 -66 -13 -74 -21 -9 -9 -10
-14 -3 -14 14 0 40 -25 40 -39 0 -6 -4 -11 -9 -11 -5 0 -12 -27 -16 -60 -4
-33 -11 -60 -15 -60 -4 0 -11 -27 -15 -60 -4 -33 -11 -60 -15 -60 -4 0 -11
-27 -15 -60 -4 -33 -10 -60 -15 -60 -4 0 -10 -13 -13 -29 -7 -34 -35 -71 -54
-71 -7 0 -13 -4 -13 -10 0 -5 -13 -10 -30 -10 -22 0 -30 -5 -30 -17 0 -17 16
-18 190 -18 135 0 193 3 198 12 4 6 20 15 35 18 15 4 27 11 27 16 0 5 5 9 11
9 19 0 78 66 85 94 3 14 10 26 15 26 5 0 9 27 9 60 0 33 -4 60 -10 60 -5 0
-10 6 -10 13 0 15 -44 57 -59 57 -6 0 -11 5 -11 10 0 6 -12 11 -27 11 -17 1
-21 3 -10 6 9 2 17 8 17 13 0 4 11 11 25 14 14 4 25 11 25 16 0 6 7 10 15 10
8 0 15 7 15 15 0 9 7 18 15 21 11 5 15 22 15 65 0 32 -4 59 -9 59 -5 0 -12 11
-15 24 -3 14 -16 28 -29 32 -12 4 -25 11 -28 16 -7 11 -193 19 -246 11z m117
-343 c0 -5 12 -10 28 -10 16 0 37 -11 51 -25 21 -23 23 -32 19 -102 -2 -48 -8
-78 -16 -81 -7 -2 -12 -8 -12 -14 0 -14 -42 -58 -57 -58 -6 0 -13 -6 -15 -12
-3 -9 -30 -13 -89 -13 l-84 0 3 30 c2 16 8 33 14 36 5 3 12 25 15 48 3 22 9
41 13 41 4 0 11 25 15 55 3 30 11 55 16 55 5 0 9 14 9 30 0 29 2 30 45 30 25
0 45 -4 45 -10z"/>
<path d="M3612 1905 c-8 -10 -33 -15 -72 -15 -33 0 -60 -4 -60 -9 0 -5 -14
-11 -30 -15 -32 -6 -160 -123 -160 -145 0 -6 -4 -11 -10 -11 -5 0 -12 -11 -16
-25 -3 -14 -10 -25 -14 -25 -5 0 -12 -15 -15 -32 -4 -18 -12 -36 -18 -39 -5
-4 -10 -43 -11 -86 -1 -83 8 -105 50 -116 16 -4 16 -5 2 -6 -10 0 -18 -5 -18
-10 0 -5 -13 -12 -29 -16 -16 -3 -32 -13 -35 -21 -3 -8 -10 -14 -16 -14 -14 0
-34 -20 -43 -42 -3 -10 -11 -18 -17 -18 -5 0 -10 -18 -10 -40 0 -22 5 -40 10
-40 6 0 10 -5 10 -11 0 -20 44 -59 68 -59 12 0 22 -4 22 -10 0 -6 28 -10 65
-10 36 0 65 4 65 9 0 5 18 11 40 15 22 3 40 11 40 16 0 6 5 10 11 10 21 0 79
68 85 100 4 16 10 30 14 30 4 0 10 59 13 132 4 72 11 134 15 137 5 3 13 36 16
74 4 37 12 67 16 67 5 0 12 23 16 50 4 28 10 50 14 50 4 0 11 25 15 55 3 30
11 55 16 55 5 0 9 7 9 15 0 19 -21 19 -38 0z m-79 -112 c-3 -21 -9 -40 -14
-43 -4 -3 -10 -31 -14 -62 -4 -32 -11 -58 -15 -58 -4 0 -11 -16 -14 -35 -4
-19 -11 -35 -16 -35 -6 0 -10 -6 -10 -14 0 -19 -57 -76 -76 -76 -8 0 -14 -4
-14 -10 0 -17 -30 -11 -52 10 -19 18 -20 26 -15 102 4 46 11 84 17 86 5 2 13
21 16 43 4 21 11 39 16 39 5 0 12 8 15 18 10 25 27 40 57 48 14 3 26 10 26 15
0 5 22 9 49 9 l50 0 -6 -37z m-88 -490 c-3 -24 -10 -43 -15 -43 -4 0 -11 -12
-14 -26 -8 -29 -28 -54 -45 -54 -5 0 -14 -8 -19 -17 -7 -12 -27 -18 -71 -21
-60 -4 -63 -3 -96 31 -34 35 -46 67 -25 67 6 0 10 6 10 14 0 18 73 92 99 101
12 3 21 11 21 16 0 5 7 9 15 9 9 0 18 6 21 14 3 8 16 17 30 20 13 4 24 11 24
16 0 6 6 10 13 10 7 0 21 10 32 23 l20 22 3 -70 c2 -38 0 -89 -3 -112z"/>
<path d="M5156 1905 c-4 -11 -21 -15 -66 -15 -33 0 -60 -4 -60 -9 0 -4 -15
-11 -34 -14 -24 -4 -52 -24 -99 -71 -36 -36 -68 -75 -72 -86 -3 -11 -10 -20
-15 -20 -5 0 -11 -13 -15 -30 -4 -16 -11 -30 -15 -30 -5 0 -12 -22 -16 -50 -4
-27 -10 -50 -15 -50 -5 0 -9 -20 -9 -45 0 -25 4 -45 9 -45 5 0 12 -11 15 -25
5 -19 13 -25 34 -26 17 -1 20 -3 10 -6 -10 -2 -18 -8 -18 -13 0 -5 -13 -11
-30 -15 -16 -4 -30 -11 -30 -16 0 -5 -11 -11 -25 -15 -13 -3 -27 -16 -31 -27
-4 -12 -14 -27 -22 -33 -25 -18 -11 -97 23 -128 15 -14 36 -26 46 -26 11 0 19
-4 19 -10 0 -6 30 -10 70 -10 39 0 70 4 70 9 0 5 16 12 35 15 19 4 35 11 35
16 0 6 6 10 14 10 18 0 76 57 76 75 0 7 5 15 12 17 8 3 14 39 16 111 2 59 8
107 12 107 4 0 11 38 15 85 4 47 10 85 15 85 4 0 10 23 14 50 4 28 11 50 15
50 5 0 12 26 16 58 4 31 10 59 15 62 4 3 10 22 14 43 5 29 4 37 -7 37 -8 0
-17 -7 -21 -15z m-66 -85 c0 -5 -4 -10 -9 -10 -5 0 -12 -27 -16 -60 -4 -33
-10 -60 -15 -60 -4 0 -10 -22 -14 -50 -4 -27 -11 -50 -15 -50 -5 0 -12 -12
-15 -26 -7 -28 -66 -94 -85 -94 -6 0 -11 -4 -11 -10 0 -17 -39 -11 -60 10 -15
15 -20 33 -20 75 0 30 4 55 9 55 4 0 11 19 14 42 3 24 11 44 16 46 6 2 11 15
11 28 0 14 6 27 14 30 8 3 17 16 20 29 4 16 16 26 36 30 16 4 30 11 30 16 0 5
25 9 55 9 30 0 55 -4 55 -10z m-90 -430 c0 -49 -4 -90 -9 -90 -5 0 -12 -16
-15 -35 -4 -19 -11 -35 -15 -35 -5 0 -12 -11 -15 -25 -4 -14 -13 -25 -20 -25
-8 0 -22 -8 -32 -17 -10 -11 -38 -18 -73 -21 -54 -4 -59 -2 -90 29 -27 26 -32
38 -27 61 6 30 85 118 106 118 6 0 13 6 16 14 3 8 16 17 30 20 13 4 24 11 24
16 0 6 7 10 15 10 9 0 18 7 21 15 4 8 12 15 20 15 8 0 22 9 31 20 10 11 21 20
25 20 5 0 8 -40 8 -90z"/>
<path d="M6923 1856 c-35 -35 -63 -66 -63 -70 0 -11 -34 -46 -45 -46 -5 0 -5
4 2 8 7 4 15 38 19 75 6 64 6 67 -15 67 -11 0 -21 -4 -21 -9 0 -5 -18 -11 -40
-15 -22 -3 -40 -11 -40 -16 0 -6 -8 -14 -17 -17 -27 -10 -73 -59 -73 -77 0
-24 12 -20 41 13 15 17 38 33 53 37 l28 7 -8 -49 c-4 -27 -10 -51 -14 -54 -4
-3 -11 -35 -14 -72 -4 -38 -11 -68 -16 -68 -5 0 -12 -21 -16 -47 -4 -27 -10
-50 -14 -53 -4 -3 -10 -22 -13 -42 l-6 -38 43 0 c48 0 56 11 56 78 0 17 4 32
9 32 5 0 12 27 16 60 4 33 11 60 16 60 5 0 9 9 9 19 0 11 6 26 13 33 7 7 16
21 20 31 3 9 11 17 17 17 5 0 10 6 10 14 0 20 45 64 74 72 14 3 26 10 26 15 0
5 18 12 39 15 41 7 54 25 44 64 -10 39 -53 24 -120 -44z"/>
<path d="M8202 1905 c-8 -10 -33 -15 -72 -15 -33 0 -60 -4 -60 -9 0 -5 -14
-11 -30 -15 -32 -6 -160 -123 -160 -145 0 -6 -4 -11 -10 -11 -5 0 -12 -11 -16
-25 -3 -14 -10 -25 -14 -25 -5 0 -12 -15 -15 -32 -4 -18 -12 -36 -18 -39 -5
-4 -10 -43 -11 -86 -1 -83 8 -105 50 -116 16 -4 16 -5 2 -6 -10 0 -18 -5 -18
-10 0 -5 -13 -12 -29 -16 -16 -3 -32 -13 -35 -21 -3 -8 -10 -14 -16 -14 -14 0
-34 -20 -43 -42 -3 -10 -11 -18 -17 -18 -5 0 -10 -18 -10 -40 0 -22 5 -40 10
-40 6 0 10 -5 10 -11 0 -20 44 -59 68 -59 12 0 22 -4 22 -10 0 -6 28 -10 65
-10 36 0 65 4 65 9 0 5 18 11 40 15 22 3 40 11 40 16 0 6 5 10 11 10 21 0 79
68 85 100 4 16 10 30 14 30 4 0 10 59 13 132 4 72 11 134 15 137 5 3 13 36 16
74 4 37 12 67 16 67 5 0 12 23 16 50 4 28 10 50 14 50 4 0 11 25 15 55 3 30
11 55 16 55 5 0 9 7 9 15 0 19 -21 19 -38 0z m-79 -112 c-3 -21 -9 -40 -14
-43 -4 -3 -10 -31 -14 -62 -4 -32 -11 -58 -15 -58 -4 0 -11 -16 -14 -35 -4
-19 -11 -35 -16 -35 -6 0 -10 -6 -10 -14 0 -19 -57 -76 -76 -76 -8 0 -14 -4
-14 -10 0 -17 -30 -11 -52 10 -19 18 -20 26 -15 102 4 46 11 84 17 86 5 2 13
21 16 43 4 21 11 39 16 39 5 0 12 8 15 18 10 25 27 40 57 48 14 3 26 10 26 15
0 5 22 9 49 9 l50 0 -6 -37z m-88 -490 c-3 -24 -10 -43 -15 -43 -4 0 -11 -12
-14 -26 -8 -29 -28 -54 -45 -54 -5 0 -14 -8 -19 -17 -7 -12 -27 -18 -71 -21
-60 -4 -63 -3 -96 31 -34 35 -46 67 -25 67 6 0 10 6 10 14 0 18 73 92 99 101
12 3 21 11 21 16 0 5 7 9 15 9 9 0 18 6 21 14 3 8 16 17 30 20 13 4 24 11 24
16 0 6 6 10 13 10 7 0 21 10 32 23 l20 22 3 -70 c2 -38 0 -89 -3 -112z"/>
<path d="M2546 1875 c-4 -11 -21 -15 -66 -15 -33 0 -60 -4 -60 -9 0 -5 -18
-11 -39 -15 -21 -3 -41 -13 -45 -21 -3 -8 -10 -15 -16 -15 -13 0 -80 -63 -80
-75 0 -4 -11 -18 -25 -31 -13 -12 -27 -34 -31 -48 -3 -14 -10 -26 -14 -26 -4
0 -11 -20 -14 -45 -4 -25 -11 -45 -17 -45 -5 0 -9 -18 -9 -40 0 -22 4 -40 9
-40 5 0 11 -13 14 -30 5 -21 14 -31 32 -36 31 -8 95 3 95 16 0 6 7 10 15 10 8
0 23 9 32 20 10 11 23 20 30 20 7 0 13 4 13 9 0 5 7 11 14 14 12 5 14 -3 9
-45 l-6 -51 47 6 c26 4 54 14 62 22 9 8 20 15 25 15 18 0 88 81 82 96 -7 19
-8 19 -52 -26 -21 -22 -46 -40 -56 -40 -15 0 -16 8 -9 68 3 37 10 69 14 72 5
3 11 31 15 63 4 31 11 57 15 57 5 0 11 19 15 43 4 23 11 44 15 47 4 3 10 24
14 48 5 32 3 42 -8 42 -8 0 -16 -7 -20 -15z m-66 -90 c0 -8 -4 -15 -9 -15 -5
0 -12 -25 -16 -55 -3 -30 -10 -55 -14 -55 -5 0 -11 -22 -15 -50 -4 -27 -11
-50 -16 -50 -5 0 -12 -10 -15 -22 -9 -26 -53 -68 -71 -68 -8 0 -14 -4 -14 -10
0 -18 -49 -11 -70 10 -15 15 -20 33 -20 70 0 28 4 50 9 50 4 0 11 19 14 42 3
24 11 44 16 46 6 2 11 10 11 18 0 8 6 17 14 20 8 3 17 16 20 29 4 16 16 26 36
30 16 4 30 11 30 16 0 5 25 9 55 9 42 0 55 -3 55 -15z"/>
<path d="M2810 1881 c0 -5 -12 -12 -27 -16 -15 -3 -37 -17 -50 -31 -12 -13
-26 -24 -32 -24 -14 0 -41 -29 -41 -46 0 -8 7 -14 15 -14 8 0 15 5 15 10 0 6
8 14 18 17 9 4 23 13 30 20 23 23 42 15 42 -17 0 -16 -4 -30 -9 -30 -5 0 -12
-29 -16 -65 -3 -36 -10 -65 -15 -65 -4 0 -11 -26 -15 -57 -4 -32 -11 -60 -15
-63 -4 -3 -11 -29 -15 -57 l-7 -53 45 0 44 0 7 70 c4 39 11 70 16 70 4 0 11
27 15 60 4 33 11 60 15 60 4 0 11 11 14 25 7 28 81 105 101 105 7 0 15 7 19
15 3 9 18 15 37 15 l31 0 -7 -57 c-4 -32 -11 -60 -16 -63 -4 -3 -11 -25 -15
-48 -4 -23 -10 -42 -14 -42 -5 0 -12 -29 -15 -65 -4 -36 -11 -65 -16 -65 -5 0
-9 -11 -9 -25 0 -14 4 -25 9 -25 5 0 11 -10 14 -21 5 -19 11 -21 44 -16 21 4
39 11 41 17 2 5 8 10 14 10 6 0 33 23 60 50 47 48 48 50 23 50 -15 0 -28 -7
-32 -17 -10 -26 -27 -41 -57 -49 -24 -6 -26 -4 -26 30 0 20 4 36 9 36 5 0 12
27 16 60 4 33 11 60 15 60 4 0 11 20 14 45 4 25 11 45 16 45 11 0 24 122 15
149 -4 15 -15 21 -36 21 -16 0 -29 -4 -29 -10 0 -5 -11 -10 -25 -10 -14 0 -28
-7 -31 -15 -4 -8 -12 -15 -19 -15 -8 0 -26 -13 -42 -28 -15 -16 -36 -31 -45
-35 -10 -3 -18 -11 -18 -17 0 -5 -4 -10 -10 -10 -5 0 -10 11 -10 25 0 14 5 25
10 25 6 0 10 20 10 45 0 43 -1 45 -30 45 -16 0 -30 -4 -30 -9z"/>
<path d="M3840 1881 c0 -5 -12 -12 -26 -15 -14 -4 -36 -18 -48 -31 -13 -14
-27 -25 -32 -25 -19 0 -41 -35 -30 -46 8 -8 22 0 48 27 54 56 62 52 54 -28 -4
-37 -11 -70 -15 -73 -4 -3 -11 -25 -15 -50 -4 -24 -11 -47 -16 -50 -12 -8 -25
-141 -16 -174 5 -21 12 -26 36 -26 17 0 30 5 30 10 0 6 11 10 25 10 14 0 28 6
31 14 3 8 16 17 30 20 13 4 24 11 24 16 0 6 7 10 15 10 9 0 18 6 21 14 3 8 11
17 19 19 9 4 12 -8 11 -49 -1 -39 3 -58 14 -65 17 -11 73 -3 78 11 2 6 9 10
17 10 20 0 95 78 95 100 0 27 -17 26 -25 -2 -10 -29 -54 -68 -78 -68 -19 0
-19 4 -13 73 4 39 11 73 16 75 5 2 12 26 16 53 4 27 10 49 14 49 4 0 11 25 15
55 3 30 10 55 15 55 4 0 10 16 12 35 l4 35 -43 0 -42 0 -7 -50 c-4 -27 -10
-50 -14 -50 -4 0 -11 -25 -15 -55 -3 -30 -10 -55 -15 -55 -4 0 -11 -16 -14
-35 -4 -19 -11 -35 -16 -35 -6 0 -10 -6 -10 -14 0 -18 -57 -76 -75 -76 -7 0
-15 -7 -19 -15 -3 -9 -18 -15 -37 -15 l-32 0 7 73 c4 39 11 73 16 75 5 2 12
26 16 53 4 27 10 49 14 49 11 0 24 123 15 149 -4 14 -15 21 -31 21 -13 0 -24
-4 -24 -9z"/>
<path d="M4646 1875 c-4 -11 -21 -15 -66 -15 -33 0 -60 -4 -60 -9 0 -5 -18
-11 -39 -15 -21 -3 -41 -13 -45 -21 -3 -8 -10 -15 -16 -15 -13 0 -80 -63 -80
-75 0 -4 -11 -18 -25 -31 -13 -12 -27 -34 -31 -48 -3 -14 -10 -26 -14 -26 -4
0 -11 -20 -14 -45 -4 -25 -11 -45 -17 -45 -5 0 -9 -18 -9 -40 0 -22 4 -40 9
-40 5 0 11 -13 14 -30 5 -21 14 -31 32 -36 31 -8 95 3 95 16 0 6 7 10 15 10 8
0 23 9 32 20 10 11 23 20 30 20 7 0 13 4 13 9 0 5 7 11 14 14 12 5 14 -3 9
-45 l-6 -51 47 6 c26 4 54 14 62 22 9 8 20 15 25 15 18 0 88 81 82 96 -7 19
-8 19 -52 -26 -21 -22 -46 -40 -56 -40 -15 0 -16 8 -9 68 3 37 10 69 14 72 5
3 11 31 15 63 4 31 11 57 15 57 5 0 11 19 15 43 4 23 11 44 15 47 4 3 10 24
14 48 5 32 3 42 -8 42 -8 0 -16 -7 -20 -15z m-66 -90 c0 -8 -4 -15 -9 -15 -5
0 -12 -25 -16 -55 -3 -30 -10 -55 -14 -55 -5 0 -11 -22 -15 -50 -4 -27 -11
-50 -16 -50 -5 0 -12 -10 -15 -22 -9 -26 -53 -68 -71 -68 -8 0 -14 -4 -14 -10
0 -18 -49 -11 -70 10 -15 15 -20 33 -20 70 0 28 4 50 9 50 4 0 11 19 14 42 3
24 11 44 16 46 6 2 11 10 11 18 0 8 6 17 14 20 8 3 17 16 20 29 4 16 16 26 36
30 16 4 30 11 30 16 0 5 25 9 55 9 42 0 55 -3 55 -15z"/>
<path d="M5460 1880 c0 -5 -9 -10 -19 -10 -11 0 -26 -7 -35 -15 -8 -8 -18 -15
-23 -15 -12 0 -53 -46 -53 -59 0 -6 -4 -11 -10 -11 -5 0 -12 -11 -16 -25 -3
-14 -10 -25 -14 -25 -4 0 -11 -12 -15 -27 -3 -15 -11 -31 -17 -34 -5 -3 -12
-34 -15 -68 -3 -33 -10 -61 -14 -61 -5 0 -9 -13 -9 -30 0 -16 5 -30 10 -30 6
0 10 -12 10 -27 0 -49 13 -58 83 -58 47 0 68 5 81 18 10 9 24 17 32 17 8 0 14
5 14 10 0 6 8 14 18 17 23 9 82 67 82 82 0 21 -38 11 -68 -18 -16 -17 -41 -33
-56 -37 -14 -3 -26 -10 -26 -15 0 -16 -58 -10 -64 7 -3 9 -6 40 -6 71 0 46 3
56 20 60 11 3 20 9 20 13 0 5 14 11 30 15 17 4 30 10 30 15 0 5 14 11 30 15
17 4 30 10 30 15 0 5 9 12 21 15 29 10 57 40 65 70 3 14 10 25 15 25 5 0 9 11
9 25 0 14 -4 25 -10 25 -5 0 -10 6 -10 13 0 24 -39 47 -80 47 -22 0 -40 -4
-40 -10z m34 -46 c18 -7 23 -84 6 -84 -5 0 -10 -5 -10 -11 0 -19 -65 -77 -93
-84 -14 -4 -28 -13 -31 -21 -10 -27 -26 -14 -26 21 0 19 4 35 9 35 5 0 11 18
15 40 11 72 77 124 130 104z"/>
<path d="M7130 1881 c0 -5 -12 -12 -26 -15 -15 -4 -46 -27 -70 -51 -43 -42
-55 -65 -34 -65 6 0 10 5 10 10 0 6 6 10 13 10 7 0 20 9 30 20 9 11 26 20 37
20 18 0 20 -4 14 -42 -4 -24 -11 -44 -15 -46 -5 -2 -11 -26 -15 -53 -4 -27
-10 -49 -15 -49 -4 0 -11 -27 -15 -60 -4 -33 -11 -60 -15 -60 -5 0 -9 -25 -9
-55 0 -50 2 -55 25 -61 36 -9 73 3 99 31 13 14 27 25 31 25 12 0 55 44 55 58
0 22 -22 13 -57 -23 -48 -50 -63 -46 -63 15 0 28 4 50 9 50 5 0 12 25 16 55 3
30 10 55 14 55 5 0 11 22 15 49 4 27 11 51 16 53 5 2 12 33 16 71 l7 67 -37 0
c-20 0 -36 -4 -36 -9z"/>
<path d="M8510 1880 c0 -5 -11 -10 -25 -10 -14 0 -28 -7 -31 -15 -4 -8 -12
-15 -19 -15 -17 0 -61 -43 -70 -68 -3 -12 -10 -22 -15 -22 -5 0 -11 -13 -15
-30 -4 -16 -10 -30 -15 -30 -5 0 -12 -15 -15 -32 -4 -18 -12 -36 -17 -39 -5
-4 -10 -49 -11 -101 -2 -122 7 -133 101 -132 49 1 67 5 74 17 5 10 16 17 23
17 8 0 15 4 15 9 0 5 9 13 20 16 24 8 90 71 90 85 0 21 -47 8 -71 -19 -15 -17
-38 -33 -53 -37 -14 -3 -26 -10 -26 -15 0 -14 -50 -10 -66 5 -9 9 -14 35 -14
70 0 51 2 56 25 62 14 3 25 10 25 14 0 5 14 11 30 15 17 4 30 10 30 15 0 5 13
11 29 15 16 3 32 13 35 21 3 8 10 14 16 14 15 0 50 33 50 46 0 7 6 14 13 17 7
2 12 21 12 48 0 59 -29 89 -85 89 -22 0 -40 -4 -40 -10z m35 -95 c-1 -44 -5
-54 -37 -87 -20 -20 -47 -40 -60 -43 -12 -4 -28 -14 -36 -22 -8 -8 -17 -12
-19 -9 -9 9 8 116 18 116 5 0 9 9 9 19 0 11 14 34 31 51 24 24 39 30 63 28 30
-3 31 -4 31 -53z"/>
</g>
</svg>
